<?xml version="1.0" standalone="no"?>
<!DOCTYPE svg PUBLIC "-//W3C//DTD SVG 20010904//EN"
 "http://www.w3.org/TR/2001/REC-SVG-20010904/DTD/svg10.dtd">
<svg version="1.0" xmlns="http://www.w3.org/2000/svg"
 width="286.000000pt" height="337.000000pt" viewBox="0 0 286.000000 337.000000"
 preserveAspectRatio="xMidYMid meet">
<metadata>
Created by potrace 1.16, written by Peter Selinger 2001-2019
</metadata>
<g transform="translate(0.000000,337.000000) scale(0.100000,-0.100000)"
fill="#000000" stroke="none">
<path d="M1482 3332 c3 -20 22 -74 43 -119 32 -71 41 -82 67 -87 17 -3 132 -6
257 -7 124 -1 267 -4 316 -8 l90 -6 -90 -13 c-195 -27 -365 -34 -690 -29 -389
6 -468 16 -816 103 l-97 24 -138 -76 c-218 -120 -344 -195 -344 -206 0 -6 24
-61 54 -122 110 -225 156 -411 155 -620 l0 -121 -25 100 c-33 135 -85 286
-101 292 -21 8 -38 -12 -104 -118 -69 -112 -68 -102 -26 -261 33 -124 47 -280
47 -540 l0 -208 55 0 54 0 37 68 c186 341 369 556 617 723 48 33 87 66 87 74
0 8 -15 17 -37 21 -79 13 -151 72 -194 156 -40 78 -38 79 176 109 364 52 684
116 942 189 76 21 139 37 141 36 2 -3 -100 -70 -180 -120 -25 -15 -28 -22 -28
-71 0 -30 8 -128 17 -217 24 -228 26 -1055 3 -1083 -36 -43 -304 -201 -461
-271 -127 -56 -283 -114 -309 -114 -19 0 -20 8 -20 178 0 98 5 216 10 262 11
88 52 259 71 296 9 18 108 83 189 124 14 7 -13 -23 -59 -66 l-83 -79 -9 -75
c-4 -41 -8 -105 -9 -142 l0 -68 30 0 c38 0 215 82 304 141 l65 42 16 76 c27
125 114 430 151 525 19 48 34 94 34 101 0 33 -495 24 -576 -10 -48 -20 -178
-130 -343 -290 -180 -175 -268 -276 -367 -425 -150 -226 -254 -461 -315 -710
l-33 -133 86 -82 c171 -163 349 -276 543 -345 74 -26 100 -31 150 -27 127 10
481 166 690 305 114 76 324 255 395 339 l33 38 -33 -60 c-116 -212 -277 -391
-513 -567 -59 -45 -106 -86 -104 -92 5 -14 173 -64 219 -65 82 -2 362 80 632
185 204 80 496 223 496 244 0 9 -22 64 -49 121 -166 353 -275 850 -287 1299
l-4 185 34 -165 c81 -381 200 -787 287 -978 24 -54 32 -63 51 -60 18 2 35 26
78 113 51 102 55 114 54 180 0 38 -12 136 -27 217 -50 276 -60 416 -54 803 6
425 25 608 97 959 17 80 30 154 30 164 0 19 -9 19 -252 14 -340 -6 -691 18
-990 68 -151 26 -142 27 -136 -18z"/>
</g>
</svg>
