<svg version="1.0" xmlns="http://www.w3.org/2000/svg"
 width="381.000000pt" height="461.000000pt" viewBox="0 0 381.000000 461.000000"
 preserveAspectRatio="xMidYMid meet">
<g transform="translate(0.000000,461.000000) scale(0.100000,-0.100000)"
fill="#000000" stroke="none">
<path d="M2525 4595 c-228 -72 -366 -301 -314 -524 5 -24 7 -46 5 -49 -3 -2
-49 6 -104 18 l-98 22 -12 42 c-16 60 -63 120 -114 145 -124 60 -277 -12 -309
-146 -11 -48 -1 -139 17 -154 8 -6 14 -16 14 -21 0 -5 10 -18 23 -29 103 -89
239 -82 325 15 17 20 34 36 36 36 3 0 10 -19 16 -42 6 -24 18 -65 27 -93 8
-27 16 -54 17 -60 1 -5 7 -20 14 -32 7 -12 12 -24 12 -28 0 -8 -155 3 -305 21
-135 17 -305 50 -474 94 l-115 30 -185 -102 c-190 -104 -456 -261 -479 -283
-11 -10 -4 -27 41 -96 65 -101 98 -164 90 -173 -4 -3 -1 -6 5 -6 11 0 35 -60
38 -95 1 -10 -47 -96 -106 -190 -145 -231 -134 -203 -105 -270 14 -31 27 -69
28 -84 2 -15 6 -32 10 -38 24 -39 69 -503 49 -503 -5 0 -31 10 -58 22 -38 17
-67 22 -129 22 -148 -1 -255 -66 -317 -192 -30 -61 -33 -75 -33 -157 0 -71 5
-100 22 -138 12 -26 21 -48 20 -50 -7 -8 108 -102 153 -125 48 -24 67 -27 150
-27 82 0 103 4 150 26 70 34 133 97 167 168 32 68 30 64 42 57 5 -4 -6 -42
-28 -94 -73 -167 -161 -471 -161 -555 0 -44 43 -102 151 -202 79 -73 101 -100
119 -145 69 -176 217 -296 400 -322 71 -11 91 -10 163 6 89 21 129 23 195 11
42 -8 43 -8 35 -39 -13 -53 -4 -125 20 -162 26 -40 106 -84 154 -84 38 0 98
23 126 48 49 44 73 153 46 203 -6 11 -9 24 -7 28 2 5 55 -7 118 -25 l115 -34
94 17 93 17 18 -22 c10 -12 20 -26 22 -30 7 -16 117 -93 160 -112 88 -39 219
-44 324 -12 53 16 136 76 187 133 67 77 78 89 73 89 -3 0 4 25 15 55 11 30 22
88 25 128 l7 72 103 55 104 54 47 -24 c36 -17 63 -23 106 -22 126 4 211 90
212 217 0 75 -36 143 -98 182 -54 34 -144 43 -201 19 -22 -9 -40 -15 -42 -13
-2 2 20 32 49 67 68 85 138 202 167 281 13 35 26 66 29 69 16 14 9 100 -18
235 -16 83 -37 205 -45 272 -14 109 -14 126 0 164 23 66 35 213 24 294 -5 38
-22 107 -36 152 l-27 82 26 38 c55 80 60 134 22 209 -23 44 -25 57 -20 124 16
207 76 546 139 790 19 71 31 132 27 134 -3 2 -60 -3 -126 -11 -118 -14 -587
-24 -599 -12 -4 3 3 27 14 52 11 26 26 81 32 124 32 218 -103 423 -321 489
-56 17 -192 17 -246 -1z m-50 -759 c259 -38 380 -46 758 -46 213 0 347 -4 347
-10 0 -5 -16 -87 -35 -182 -74 -367 -100 -689 -92 -1113 6 -292 18 -429 57
-645 12 -63 24 -144 26 -180 5 -63 4 -68 -48 -169 -29 -58 -58 -106 -64 -108
-22 -7 -130 270 -203 523 -52 182 -123 496 -156 697 -4 23 -11 37 -18 34 -17
-5 -20 -150 -7 -362 27 -454 124 -869 281 -1204 27 -57 49 -108 49 -113 0 -14
-311 -163 -476 -228 -287 -112 -606 -204 -654 -189 -14 4 -58 17 -98 29 l-73
21 103 76 c132 97 346 312 419 423 89 133 148 260 122 260 -5 0 -50 -45 -101
-100 -101 -108 -251 -233 -380 -318 -169 -110 -555 -280 -657 -290 -141 -12
-447 153 -654 353 l-104 101 37 140 c77 286 191 520 373 768 108 146 503 532
624 609 34 23 179 37 377 37 132 0 164 -3 168 -14 3 -8 -17 -81 -44 -163 -28
-81 -71 -231 -96 -332 -26 -102 -48 -186 -49 -186 -1 -1 -23 -16 -49 -33 -80
-55 -299 -157 -306 -145 -4 7 -4 65 1 130 l8 118 80 80 c109 111 105 133 -14
74 -124 -62 -143 -85 -176 -215 -55 -218 -71 -633 -24 -651 47 -18 408 138
628 270 171 103 174 106 185 207 22 191 9 736 -25 1085 -8 83 -15 155 -15 161
0 7 56 48 124 92 68 44 127 86 131 92 14 22 -7 24 -73 6 -395 -109 -728 -180
-1039 -221 -263 -36 -243 -30 -243 -63 2 -101 96 -209 207 -237 l45 -11 -63
-40 c-244 -154 -447 -390 -643 -746 -34 -63 -40 -68 -70 -68 l-33 0 -6 268
c-5 272 -12 335 -58 528 l-22 91 38 64 c77 129 97 153 107 135 24 -42 74 -214
112 -378 4 -17 13 -28 23 -28 14 0 15 18 10 178 -5 143 -11 197 -31 279 -30
120 -77 245 -135 362 -23 46 -41 84 -39 86 10 9 353 203 405 228 l62 31 103
-23 c378 -83 444 -91 795 -98 318 -6 472 2 770 43 100 13 184 24 187 24 3 0 6
4 6 8 0 5 -180 12 -399 16 -220 3 -413 9 -430 12 -26 6 -34 16 -60 78 -16 39
-33 84 -37 100 -7 28 -6 29 27 23 19 -3 111 -17 204 -31z"/>
</g>
</svg>