<?xml version="1.0" encoding="iso-8859-1"?>
<!-- Generator: Adobe Illustrator 19.0.0, SVG Export Plug-In . SVG Version: 6.00 Build 0)  -->
<svg version="1.1" id="Layer_1" xmlns="http://www.w3.org/2000/svg" xmlns:xlink="http://www.w3.org/1999/xlink" x="0px" y="0px"
	 viewBox="0 0 496.158 496.158" style="enable-background:new 0 0 496.158 496.158;" xml:space="preserve">
<path style="fill:#334D5C;" d="M248.082,0.003C111.07,0.003,0,111.063,0,248.085c0,137.001,111.07,248.07,248.082,248.07
	c137.006,0,248.076-111.069,248.076-248.07C496.158,111.062,385.088,0.003,248.082,0.003z"/>
<path style="fill:#647F8C;" d="M386.868,235.302C348.597,197.031,97.963,97.963,97.963,97.963S192.628,331.221,230.9,369.492
	c0,0,100.321,38.271,138.593,0C407.764,331.221,386.868,235.302,386.868,235.302z"/>
<polygon style="fill:#A8A58F;" points="415.773,310.338 414.854,293.593 409.593,272.114 386.868,235.302 355.651,223.369 
	350.661,210.528 300.103,210.697 291.44,204.438 270.25,210.767 234.331,235.572 227.143,244.079 215.675,262.989 202.151,304.057 
	201.326,322.209 211.895,343.311 251.367,394.388 270.826,404.897 313.37,412.742 321.385,404.727 330.048,410.987 351.238,404.658 
	386.868,380.123 394.344,371.345 392.151,357.745 405.811,352.436 "/>
<polygon style="fill:#D3D1B7;" points="415.773,310.338 414.854,293.593 409.593,272.114 386.868,235.302 372.419,235.302 
	355.651,223.369 350.661,210.528 300.103,210.697 291.44,204.438 270.25,210.767 259.448,235.302 234.62,242.874 215.675,262.989 
	205.714,305.086 210.403,323.034 211.895,343.311 251.367,394.388 270.826,404.897 313.37,412.742 321.385,404.727 330.048,410.987 
	351.238,404.658 386.868,380.123 394.344,371.345 392.151,357.745 405.811,352.436 "/>
<polygon style="fill:#9E9A80;" points="290.753,289.42 292.815,281.169 291.739,275.965 275.488,267.142 268.366,264.425 
	253.23,260.451 250.934,259.21 243.829,261.972 242.896,271.68 237.12,279.106 225.937,283.134 226.006,305.382 251.149,329.152 
	277.029,326.332 291.852,312.146 289.239,304.253 "/>
<polygon style="fill:#C1BEA0;" points="289.239,304.253 290.753,289.42 275.281,277.043 254.241,270.854 233.819,291.276 
	233.593,312.554 251.149,329.152 277.029,326.332 291.852,312.146 "/>
<polygon style="fill:#9E9A80;" points="364.596,347.297 347.301,332.863 330.598,335.736 321.536,345.551 323.552,350.575 
	323.165,360.274 322.157,365.718 323.065,369.057 333.98,374.136 338.718,375.615 348.713,377.588 350.255,378.302 354.761,376.222 
	354.976,369.876 358.431,364.818 365.535,361.75 "/>
<polygon style="fill:#C1BEA0;" points="359.377,342.942 347.301,332.863 330.598,335.736 321.536,345.551 323.552,350.575 
	323.165,360.274 333.717,367.694 347.637,370.869 360.086,356.777 "/>
<polygon style="fill:#9E9A80;" points="380.488,273.131 379.257,267.746 375.554,257.026 375.377,255.143 370.85,251.975 
	364.626,255.323 357.825,254.834 350.893,249.72 337.517,258.723 333.326,283.445 345.448,297.901 359.967,301.117 363.67,296.364 
	373.215,291.302 379.017,289.221 381.719,286.475 "/>
<polygon style="fill:#C1BEA0;" points="369.693,261.827 349.163,257.748 336.255,266.183 333.326,283.445 345.448,297.901 
	359.967,301.117 363.67,296.364 373.215,291.302 374.439,276.994 "/>
<g>
	<polygon style="fill:#DBBB00;" points="124.007,280.965 106.196,280.337 100.6,263.959 95.005,280.337 77.194,280.965 
		91.547,290.98 86.135,308.481 100.6,297.558 115.066,308.481 109.654,290.98 	"/>
	<polygon style="fill:#DBBB00;" points="106.283,284.989 109.351,273.348 99.655,280.482 89.132,273.981 93.322,285.394 
		83.485,293.406 96.035,292.935 100.215,304.779 104.047,292.684 116.201,292.382 	"/>
	<polygon style="fill:#DBBB00;" points="277.087,59.128 259.276,58.5 253.681,42.123 248.085,58.5 230.274,59.128 244.627,69.143 
		239.215,86.644 253.681,75.722 268.146,86.644 262.734,69.143 	"/>
	<polygon style="fill:#DBBB00;" points="259.363,63.152 262.432,51.512 252.735,58.646 242.212,52.144 246.402,63.558 
		236.565,71.569 249.115,71.099 253.295,82.942 257.127,70.848 269.281,70.546 	"/>
	<polygon style="fill:#DBBB00;" points="438.991,157.971 421.181,157.343 415.585,140.966 409.989,157.343 392.179,157.971 
		406.531,167.986 401.119,185.487 415.585,174.564 430.051,185.487 424.639,167.986 	"/>
	<polygon style="fill:#DBBB00;" points="421.267,161.995 424.336,150.354 414.64,157.489 404.116,150.987 408.307,162.4 
		398.47,170.412 411.019,169.942 415.199,181.785 419.031,169.691 431.185,169.389 	"/>
</g>
<g>
</g>
<g>
</g>
<g>
</g>
<g>
</g>
<g>
</g>
<g>
</g>
<g>
</g>
<g>
</g>
<g>
</g>
<g>
</g>
<g>
</g>
<g>
</g>
<g>
</g>
<g>
</g>
<g>
</g>
</svg>
